<svg width="72.916504" height="30.488770" viewBox="0 0 72.9165 30.4888" fill="none" xmlns="http://www.w3.org/2000/svg" xmlns:xlink="http://www.w3.org/1999/xlink">
	<desc>
			Created with Pixso.
	</desc>
	<defs/>
	<path id="Caminho 483" d="M6.52 21.68C6.97 21.67 7.41 21.72 7.84 21.82C8.14 21.89 8.43 22.02 8.68 22.2C8.86 22.35 9.01 22.55 9.09 22.77C9.16 22.99 9.19 23.22 9.17 23.45C9.18 23.67 9.14 23.88 9.06 24.08L6.41 30.35L3.79 30.35L4.58 28.41L3.48 28.41L2.66 30.35L0 30.35L2.93 23.38C3.03 23.13 3.17 22.89 3.34 22.68C3.46 22.52 3.6 22.38 3.76 22.26C3.95 22.12 4.17 22.02 4.39 21.95C4.68 21.85 4.98 21.79 5.28 21.76C5.69 21.7 6.11 21.68 6.52 21.68ZM6.25 24.3C6.28 24.25 6.3 24.19 6.3 24.13C6.3 24.07 6.28 24 6.25 23.95C6.23 23.9 6.18 23.86 6.13 23.83C6.08 23.81 6.02 23.79 5.96 23.8C5.81 23.81 5.66 23.86 5.54 23.95C5.4 24.04 5.3 24.16 5.23 24.3L4.48 26.06L5.53 26.06L6.25 24.3Z" fill="#FFFFFF" fill-opacity="1.000000" fill-rule="nonzero"/>
	<path id="Caminho 484" d="M17.85 21.82L14.91 28.79C14.81 29.04 14.67 29.27 14.49 29.49C14.37 29.65 14.23 29.79 14.06 29.9C13.87 30.03 13.66 30.14 13.44 30.21C13.15 30.31 12.85 30.37 12.55 30.41C12.14 30.45 11.73 30.47 11.32 30.47C10.88 30.48 10.43 30.43 10 30.33C9.7 30.26 9.42 30.13 9.17 29.95C8.98 29.81 8.83 29.62 8.75 29.4C8.68 29.18 8.65 28.94 8.67 28.71C8.67 28.6 8.68 28.49 8.7 28.38C8.72 28.28 8.75 28.18 8.79 28.08L11.44 21.81L14.05 21.81L11.6 27.84C11.57 27.9 11.55 27.96 11.55 28.02C11.55 28.08 11.56 28.15 11.59 28.2C11.62 28.25 11.66 28.29 11.71 28.32C11.76 28.34 11.82 28.35 11.88 28.35C12.04 28.34 12.18 28.29 12.31 28.2C12.44 28.11 12.55 27.99 12.62 27.84L15.18 21.81L17.85 21.81L17.85 21.82Z" fill="#FFFFFF" fill-opacity="1.000000" fill-rule="nonzero"/>
	<path id="Caminho 485" d="M24.75 23.79L22.59 23.79L19.82 30.34L17.23 30.34L20.01 23.79L17.91 23.79L18.74 21.82L25.6 21.82L24.75 23.79Z" fill="#FFFFFF" fill-opacity="1.000000" fill-rule="nonzero"/>
	<path id="Caminho 486" d="M29.54 21.68C30.01 21.67 30.48 21.75 30.92 21.92C31.27 22.05 31.57 22.29 31.77 22.6C31.98 22.94 32.07 23.33 32.05 23.71C32.04 24.23 31.92 24.73 31.71 25.21C31.5 25.75 31.29 26.25 31.09 26.72C30.88 27.19 30.68 27.65 30.48 28.09C30.3 28.53 30.07 28.95 29.81 29.36C29.62 29.64 29.37 29.89 29.09 30.08C28.82 30.25 28.52 30.36 28.2 30.41C27.83 30.46 27.45 30.49 27.07 30.48L25.85 30.48C25.51 30.48 25.18 30.43 24.86 30.34C24.56 30.25 24.29 30.08 24.1 29.84C23.89 29.57 23.78 29.25 23.77 28.92C23.77 28.43 23.88 27.94 24.09 27.49L24.55 26.39C24.68 26.07 24.84 25.71 24.99 25.32C25.14 24.93 25.31 24.55 25.47 24.18C25.61 23.82 25.81 23.48 26.04 23.16C26.26 22.86 26.52 22.6 26.82 22.38C27.13 22.16 27.46 21.99 27.82 21.88C28.2 21.76 28.6 21.69 29 21.7L29.54 21.7L29.54 21.68ZM29.19 24.3C29.22 24.25 29.24 24.19 29.24 24.13C29.24 24.07 29.23 24 29.2 23.95C29.17 23.9 29.12 23.86 29.07 23.83C29.01 23.8 28.95 23.79 28.89 23.8C28.73 23.79 28.58 23.83 28.45 23.91C28.33 24.03 28.25 24.17 28.2 24.32L26.69 27.91C26.57 28.21 26.53 28.4 26.59 28.48C26.62 28.53 26.67 28.56 26.72 28.59C26.78 28.61 26.84 28.62 26.9 28.61C27.05 28.62 27.2 28.58 27.33 28.5C27.47 28.39 27.57 28.25 27.62 28.1L29.19 24.3Z" fill="#FFFFFF" fill-opacity="1.000000" fill-rule="nonzero"/>
	<path id="Caminho 487" d="M41.03 21.82L40.13 23.93L36.22 23.93L35.59 25.35L38.96 25.35L38.1 27.39L34.77 27.39L33.52 30.34L30.91 30.34L34.53 21.81L41.03 21.81L41.03 21.82Z" fill="#FFFFFF" fill-opacity="1.000000" fill-rule="nonzero"/>
	<path id="Caminho 488" d="M45.48 21.68C45.95 21.67 46.42 21.75 46.85 21.92C47.21 22.05 47.51 22.29 47.71 22.6C47.91 22.94 48.01 23.33 47.99 23.71C47.97 24.23 47.86 24.73 47.65 25.21C47.44 25.75 47.23 26.25 47.02 26.72C46.81 27.19 46.62 27.65 46.42 28.09C46.24 28.53 46.01 28.95 45.75 29.36C45.56 29.64 45.31 29.89 45.03 30.08C44.76 30.25 44.46 30.36 44.14 30.41C43.77 30.46 43.39 30.49 43.01 30.48L41.79 30.48C41.45 30.48 41.12 30.43 40.79 30.34C40.49 30.25 40.23 30.08 40.03 29.84C39.83 29.57 39.72 29.25 39.71 28.92C39.71 28.43 39.81 27.94 40.02 27.49L40.48 26.39C40.62 26.07 40.77 25.71 40.93 25.32C41.08 24.93 41.25 24.55 41.41 24.18C41.55 23.82 41.74 23.48 41.98 23.16C42.2 22.86 42.46 22.6 42.76 22.38C43.06 22.16 43.4 21.99 43.76 21.88C44.14 21.76 44.54 21.69 44.94 21.7L45.47 21.7L45.48 21.68ZM45.13 24.3C45.17 24.25 45.18 24.19 45.18 24.13C45.18 24.07 45.17 24 45.14 23.95C45.11 23.9 45.07 23.86 45.01 23.83C44.96 23.8 44.89 23.79 44.83 23.8C44.68 23.79 44.52 23.83 44.4 23.91C44.28 24.03 44.19 24.17 44.14 24.32L42.63 27.91C42.52 28.21 42.48 28.4 42.53 28.48C42.57 28.53 42.61 28.56 42.67 28.59C42.72 28.61 42.78 28.62 42.84 28.61C43 28.62 43.15 28.58 43.28 28.5C43.41 28.39 43.51 28.25 43.57 28.1L45.13 24.3Z" fill="#FFFFFF" fill-opacity="1.000000" fill-rule="nonzero"/>
	<path id="Caminho 489" d="M54.29 21.83C54.68 21.85 55.06 21.95 55.39 22.14C55.65 22.3 55.86 22.52 56 22.78C56.12 23.03 56.18 23.32 56.17 23.6C56.15 23.91 56.08 24.2 55.96 24.49C55.85 24.77 55.69 25.04 55.5 25.29C55.33 25.49 55.15 25.69 54.94 25.86C54.76 26.02 54.55 26.15 54.34 26.26C54.13 26.36 53.93 26.45 53.73 26.53C53.91 26.58 54.06 26.68 54.18 26.81C54.31 26.94 54.39 27.1 54.42 27.27C54.5 27.72 54.43 28.18 54.24 28.59L53.49 30.35L51.23 30.35C51.12 30.34 51.01 30.3 50.92 30.23C50.82 30.15 50.8 30.03 50.87 29.86L51.68 27.95C51.71 27.9 51.72 27.83 51.72 27.77C51.71 27.71 51.69 27.65 51.65 27.6C51.62 27.55 51.57 27.51 51.52 27.48C51.46 27.46 51.4 27.44 51.34 27.45L50.83 27.45L49.6 30.35L46.94 30.35L50.5 21.83L54.29 21.83L54.29 21.83ZM53.15 24.3C53.18 24.25 53.19 24.19 53.19 24.13C53.19 24.06 53.17 24 53.14 23.95C53.11 23.9 53.07 23.86 53.02 23.83C52.96 23.81 52.9 23.8 52.84 23.8L52.37 23.8L51.8 25.14L52.29 25.14C52.44 25.13 52.59 25.08 52.71 24.99C52.84 24.9 52.95 24.78 53.02 24.63L53.15 24.3Z" fill="#FFFFFF" fill-opacity="1.000000" fill-rule="nonzero"/>
	<path id="Caminho 490" d="M63.39 22.4C63.61 22.7 63.76 23.04 63.81 23.39C63.87 23.75 63.84 24.12 63.72 24.46C63.71 24.49 63.71 24.52 63.7 24.55C63.69 24.58 63.69 24.61 63.67 24.63C63.65 24.72 63.6 24.8 63.54 24.86C63.48 24.93 63.4 24.98 63.32 25.02C63.14 25.09 62.96 25.12 62.77 25.12L60.62 25.12L60.95 24.3C60.98 24.25 61 24.19 61 24.12C61 24.06 60.99 24 60.96 23.94C60.93 23.89 60.88 23.85 60.83 23.83C60.77 23.8 60.71 23.79 60.65 23.8C60.49 23.78 60.34 23.82 60.21 23.91C60.1 24.02 60.01 24.16 59.96 24.32L58.45 27.91C58.33 28.21 58.3 28.4 58.35 28.47C58.38 28.52 58.43 28.56 58.48 28.58C58.54 28.61 58.6 28.61 58.66 28.6C58.81 28.61 58.97 28.57 59.09 28.49C59.23 28.39 59.33 28.25 59.38 28.09L59.74 27.26L61.95 27.26C62.1 27.25 62.25 27.28 62.38 27.36C62.48 27.43 62.48 27.55 62.41 27.73C62.38 27.79 62.36 27.85 62.33 27.91C62.3 27.96 62.28 28.02 62.25 28.08C62.07 28.52 61.84 28.95 61.58 29.35C61.39 29.63 61.14 29.88 60.86 30.08C60.59 30.25 60.29 30.36 59.97 30.4C59.6 30.45 59.22 30.48 58.84 30.47L57.62 30.47C57.28 30.47 56.95 30.42 56.63 30.33C56.33 30.24 56.06 30.07 55.87 29.83C55.66 29.56 55.55 29.24 55.54 28.91C55.54 28.42 55.64 27.93 55.85 27.48L56.32 26.38C56.45 26.06 56.61 25.7 56.76 25.31C56.91 24.92 57.08 24.54 57.24 24.17C57.38 23.81 57.58 23.47 57.81 23.15C58.03 22.85 58.29 22.59 58.59 22.37C58.9 22.15 59.23 21.98 59.59 21.87C59.97 21.75 60.37 21.68 60.77 21.69L61.32 21.69C61.7 21.65 62.08 21.7 62.44 21.82C62.8 21.95 63.12 22.15 63.39 22.4Z" fill="#FFFFFF" fill-opacity="1.000000" fill-rule="nonzero"/>
	<path id="Caminho 491" d="M72.91 21.82L72.02 23.93L68.1 23.93L67.62 25.01L70.78 25.01L69.92 27.05L66.79 27.05L66.33 28.12L70.24 28.12L69.31 30.34L62.78 30.34L66.39 21.81L72.91 21.81L72.91 21.82Z" fill="#FFFFFF" fill-opacity="1.000000" fill-rule="nonzero"/>
	<path id="Caminho 492" d="M46.35 6.66C45.71 6.22 45.04 5.83 44.35 5.48C43.65 5.13 42.92 4.83 42.18 4.58C39.15 3.55 35.88 3.36 32.75 4.04C29.6 4.73 26.72 6.26 24.44 8.44C24.43 8.45 24.42 8.46 24.42 8.46C24.41 8.46 24.4 8.46 24.39 8.46C24.38 8.46 24.37 8.46 24.36 8.46C24.35 8.46 24.34 8.45 24.34 8.44C24.32 8.43 24.32 8.42 24.31 8.41C24.31 8.39 24.32 8.38 24.33 8.36C26.13 4.96 29.2 2.34 32.92 1C36.75 -0.34 40.95 -0.34 44.78 1.01C45.66 1.31 46.52 1.67 47.34 2.11C48.23 2.6 49.08 3.16 49.88 3.78C49.89 3.79 49.9 3.79 49.9 3.8C49.91 3.81 49.91 3.82 49.91 3.83C49.91 3.84 49.91 3.85 49.91 3.86C49.9 3.87 49.9 3.87 49.89 3.88L46.45 6.66C46.44 6.67 46.42 6.67 46.4 6.67C46.39 6.67 46.37 6.67 46.35 6.66Z" fill="#FFFFFF" fill-opacity="1.000000" fill-rule="evenodd"/>
	<path id="Caminho 493" d="M47.88 20.15C47.88 19.87 47.88 19.6 47.86 19.33L46.91 19.39C46.91 19.65 46.92 19.89 46.92 20.16L47.88 20.16L47.88 20.15ZM47.57 17.43C47.49 17.12 47.4 16.81 47.3 16.5L46.38 16.8C46.49 17.08 46.57 17.37 46.64 17.65L47.57 17.43L47.57 17.43ZM46.5 14.73C46.35 14.45 46.17 14.17 45.99 13.91L45.18 14.41C45.34 14.65 45.51 14.91 45.65 15.16L46.5 14.73L46.5 14.73ZM44.76 12.4C44.53 12.16 44.29 11.94 44.04 11.72L43.4 12.41C43.63 12.61 43.84 12.81 44.05 13.02L44.76 12.4ZM42.44 10.56C42.15 10.38 41.87 10.23 41.58 10.08L41.14 10.9C41.41 11.04 41.67 11.18 41.94 11.34L42.44 10.56ZM39.72 9.36C39.41 9.26 39.08 9.18 38.75 9.11L38.56 10.01C38.85 10.07 39.15 10.15 39.44 10.24L39.72 9.35L39.72 9.36ZM36.77 8.86C36.43 8.85 36.11 8.85 35.76 8.86L35.81 9.78C36.12 9.77 36.42 9.77 36.73 9.78L36.77 8.86ZM33.77 9.1C33.45 9.17 33.12 9.25 32.81 9.35L33.09 10.22C33.38 10.14 33.68 10.06 33.98 10L33.77 9.1L33.77 9.1ZM30.95 10.09C30.65 10.23 30.36 10.39 30.08 10.56L30.6 11.34C30.86 11.19 31.13 11.04 31.4 10.91L30.95 10.09ZM28.48 11.72C28.23 11.93 28 12.16 27.77 12.39L28.48 13.02C28.68 12.8 28.9 12.6 29.13 12.4L28.48 11.72ZM26.53 13.9C26.35 14.17 26.18 14.45 26.03 14.73L26.88 15.16C27.02 14.9 27.17 14.65 27.34 14.4L26.53 13.9L26.53 13.9ZM25.24 16.5C25.13 16.8 25.04 17.12 24.97 17.43L25.9 17.64C25.97 17.35 26.05 17.06 26.15 16.79L25.24 16.5L25.24 16.5ZM24.67 19.33C24.65 19.6 24.64 19.88 24.65 20.14L25.61 20.14C25.61 19.89 25.61 19.63 25.63 19.38L24.67 19.33Z" fill="#FFFFFF" fill-opacity="1.000000" fill-rule="evenodd"/>
	<path id="Caminho 495" d="M47.21 8.75C48.21 9.64 49.08 10.64 49.82 11.74L49.86 11.79C50.75 13.12 51.41 14.58 51.83 16.1C52.2 17.42 52.38 18.78 52.36 20.15L49.97 20.15C49.98 18.98 49.83 17.83 49.53 16.7C49.17 15.4 48.6 14.16 47.84 13.03L47.82 12.99C47.2 12.07 46.47 11.23 45.64 10.49L45.71 9.02L47.21 8.75Z" fill="#FFFFFF" fill-opacity="1.000000" fill-rule="evenodd"/>
	<path id="Caminho 496" d="M22.86 20.13L22.86 20.15L20.47 20.15C20.44 17.56 21.1 15.02 22.38 12.74C23.66 10.47 25.52 8.54 27.79 7.15C29.55 6.06 31.51 5.31 33.57 4.95C35.63 4.6 37.75 4.63 39.79 5.06C41.83 5.49 43.76 6.3 45.48 7.43L43.57 8.98C41.39 7.68 38.88 7 36.31 7.01C33.75 7.03 31.24 7.75 29.08 9.08C27.16 10.26 25.59 11.89 24.5 13.82C23.41 15.76 22.85 17.93 22.86 20.13Z" fill="#FFFFFF" fill-opacity="1.000000" fill-rule="evenodd"/>
	<path id="Caminho 497" d="M51.07 4.53L38.49 18.3C38.48 18.59 38.4 18.88 38.26 19.14C38.12 19.4 37.92 19.64 37.67 19.81C37.46 19.98 37.21 20.09 36.95 20.16C36.68 20.23 36.41 20.24 36.14 20.21C35.59 20.14 35.1 19.86 34.76 19.44C34.6 19.23 34.47 19 34.4 18.74C34.34 18.49 34.32 18.23 34.36 17.97C34.43 17.44 34.72 16.97 35.15 16.65C35.33 16.52 35.53 16.41 35.75 16.35C35.96 16.28 36.17 16.25 36.39 16.25L51 4.45C51.01 4.44 51.02 4.44 51.02 4.43C51.03 4.43 51.04 4.43 51.05 4.43C51.06 4.43 51.07 4.43 51.08 4.44C51.09 4.44 51.1 4.45 51.1 4.46C51.1 4.48 51.09 4.51 51.07 4.53Z" fill="#FFFFFF" fill-opacity="1.000000" fill-rule="evenodd"/>
</svg>
