<svg width="122.399780" height="22.666687" viewBox="0 0 122.4 22.6667" fill="none" xmlns="http://www.w3.org/2000/svg" xmlns:xlink="http://www.w3.org/1999/xlink">
	<desc>
			Created with Pixso.
	</desc>
	<defs/>
	<path id="Caminho 11" d="M18.2 0C19.44 0 20.66 0.17 21.84 0.5C22.77 0.89 23.54 1.51 24.08 2.29C24.66 3.13 24.95 4.1 24.93 5.09C24.76 6.38 24.48 7.66 24.09 8.91L22.41 12.98C22.41 12.98 21.29 15.28 20.73 16.55C20.27 17.7 19.71 18.8 19.04 19.86C18.37 20.52 17.62 21.12 16.8 21.64C16.07 21.94 15.33 22.19 14.56 22.41C13.44 22.41 12.6 22.66 11.48 22.66L0 22.66L9.8 0.25L9.86 0.09L18.2 0ZM17.36 6.62C17.5 6.48 17.57 6.29 17.57 6.11C17.57 5.92 17.5 5.74 17.36 5.6C17.25 5.5 17.12 5.43 16.97 5.38C16.83 5.34 16.67 5.33 16.52 5.34L15.12 5.34L9.52 18.08L10.92 18.08C11.2 18.08 11.48 17.82 12.04 17.57C12.39 17.28 12.67 16.93 12.88 16.55L17.36 6.62Z" fill="#FFFFFF" fill-opacity="1.000000" fill-rule="nonzero"/>
	<path id="Caminho 12" d="M48.06 0.65L45.83 5.4L34.93 5.4L33.81 8.24L42.48 8.24L39.96 13.65L31.3 13.65L29.9 16.48L40.8 16.48L38.29 22.66L20.4 22.66L30.46 0L48.35 0L48.06 0.65Z" fill="#FFFFFF" fill-opacity="1.000000" fill-rule="nonzero"/>
	<path id="Caminho 13" d="M58.38 0.01C59.61 -0.05 60.85 0.04 62.05 0.27C62.88 0.45 63.65 0.79 64.31 1.27C64.78 1.71 65.16 2.23 65.44 2.78C65.67 3.35 65.76 3.95 65.72 4.54C65.76 5.06 65.67 5.58 65.44 6.05L58.1 22.66L50.76 22.66L53.02 17.63L49.92 17.63L47.66 22.66L40.04 22.66L48.22 4.54C48.52 3.92 48.89 3.32 49.35 2.78L50.48 1.78C50.99 1.47 51.53 1.21 52.09 1C52.88 0.68 53.71 0.46 54.57 0.34C55.82 0.07 57.1 -0.04 58.38 0.01ZM57.54 6.81C57.61 6.7 57.93 5.85 57.65 5.6C57.4 5.38 57.07 5.26 56.72 5.27C56.31 5.26 55.9 5.38 55.57 5.6C55.22 5.96 54.93 6.37 54.72 6.81L52.74 11.34L55.57 11.34L57.54 6.81Z" fill="#FFFFFF" fill-opacity="1.000000" fill-rule="nonzero"/>
	<path id="Caminho 14" d="M77.26 17.51L75.02 22.66L60.44 22.66L70.53 0L77.82 0L70.25 17.51L77.26 17.51Z" fill="#FFFFFF" fill-opacity="1.000000" fill-rule="nonzero"/>
	<path id="Caminho 15" d="M105.02 0L102.46 5.6L91.37 5.6L89.95 8.4L98.76 8.4L96.21 13.75L87.39 13.75L85.97 16.55L97.06 16.55L94.79 22.66L76.31 22.66L86.54 0L105.02 0Z" fill="#FFFFFF" fill-opacity="1.000000" fill-rule="nonzero"/>
	<path id="Caminho 16" d="M117.09 0C118.18 -0.05 119.25 0.22 120.16 0.78C120.93 1.18 121.52 1.82 121.83 2.58C122.18 3.31 122.37 4.1 122.4 4.89C122.34 5.69 122.16 6.47 121.84 7.21C121.54 7.98 121.06 8.68 120.44 9.27C119.9 9.72 119.35 10.15 118.76 10.56C118.23 10.93 117.67 11.27 117.09 11.59L115.41 12.36C115.92 12.49 116.38 12.75 116.72 13.12C117.07 13.48 117.29 13.94 117.37 14.42C117.65 15.45 117.37 16.48 116.81 18.02L114.85 22.65L108.71 22.65C108.56 22.67 108.41 22.66 108.26 22.61C108.12 22.57 107.98 22.49 107.87 22.4C107.59 22.14 107.59 21.88 107.59 21.37L109.83 16.22C109.93 16.06 109.98 15.89 109.98 15.7C109.98 15.52 109.93 15.34 109.83 15.19C109.72 15.09 109.59 15.02 109.44 14.97C109.3 14.93 109.14 14.91 108.99 14.93L107.59 14.93L104.24 22.66L96.71 22.66L106.48 0L117.09 0ZM114.02 6.44C114.15 6.3 114.23 6.11 114.23 5.92C114.23 5.73 114.15 5.55 114.02 5.41C113.74 5.15 113.46 4.89 113.18 4.89L111.78 4.89L110.11 8.5L111.5 8.5C111.95 8.45 112.37 8.28 112.71 8.01C113.08 7.76 113.39 7.43 113.62 7.06L114.02 6.44Z" fill="#FFFFFF" fill-opacity="1.000000" fill-rule="nonzero"/>
</svg>
