<svg width="162.000000" height="30.000000" viewBox="0 0 162 30" fill="none" xmlns="http://www.w3.org/2000/svg" xmlns:xlink="http://www.w3.org/1999/xlink">
	<desc>
			Created with Pixso.
	</desc>
	<defs/>
	<path id="Caminho 11" d="M24.1 0C25.73 0 27.35 0.23 28.91 0.67C30.13 1.18 31.16 2 31.88 3.03C32.63 4.14 33.02 5.43 32.99 6.74C32.77 8.45 32.4 10.14 31.88 11.79L29.66 17.19C29.66 17.19 28.17 20.22 27.43 21.91C26.83 23.42 26.09 24.89 25.21 26.29C24.31 27.17 23.32 27.96 22.24 28.65C21.28 29.04 20.29 29.38 19.28 29.66C17.79 29.66 16.68 30 15.2 30L0 30L12.97 0.33L13.05 0.12L24.1 0ZM22.98 8.76C23.16 8.57 23.26 8.33 23.26 8.09C23.26 7.84 23.16 7.6 22.98 7.41C22.84 7.28 22.66 7.19 22.47 7.13C22.28 7.07 22.07 7.05 21.87 7.07L20.02 7.07L12.6 23.93L14.46 23.93C14.83 23.93 15.2 23.59 15.94 23.26C16.4 22.87 16.77 22.41 17.05 21.91L22.98 8.76Z" fill="#000000" fill-opacity="1.000000" fill-rule="nonzero"/>
	<path id="Caminho 12" d="M63.61 0.86L60.66 7.15L46.24 7.15L44.76 10.9L56.22 10.9L52.89 18.06L41.42 18.06L39.57 21.81L54.01 21.81L50.67 30L27 30L40.31 0L64 0L63.61 0.86Z" fill="#000000" fill-opacity="1.000000" fill-rule="nonzero"/>
	<path id="Caminho 13" d="M77.27 0.02C78.9 -0.06 80.53 0.05 82.12 0.35C83.22 0.59 84.24 1.05 85.11 1.69C85.74 2.27 86.24 2.95 86.61 3.68C86.91 4.43 87.04 5.22 86.98 6.02C87.04 6.7 86.91 7.39 86.61 8.01L76.9 30L67.19 30L70.18 23.33L66.07 23.33L63.08 30L53 30L63.83 6.02C64.21 5.19 64.71 4.4 65.32 3.68L66.81 2.35C67.48 1.94 68.2 1.6 68.95 1.33C69.99 0.91 71.09 0.61 72.23 0.45C73.88 0.1 75.58 -0.05 77.27 0.02ZM76.15 9.01C76.25 8.87 76.67 7.75 76.3 7.41C75.97 7.13 75.53 6.97 75.07 6.97C74.52 6.96 73.99 7.12 73.55 7.41C73.09 7.9 72.71 8.43 72.42 9.01L69.8 15.01L73.54 15.01L76.15 9.01Z" fill="#000000" fill-opacity="1.000000" fill-rule="nonzero"/>
	<path id="Caminho 14" d="M102.25 23.18L99.29 30L80 30L93.35 0L103 0L92.98 23.18L102.25 23.18Z" fill="#000000" fill-opacity="1.000000" fill-rule="nonzero"/>
	<path id="Caminho 15" d="M139 0L135.61 7.41L120.94 7.41L119.05 11.12L130.72 11.12L127.33 18.2L115.67 18.2L113.79 21.91L128.46 21.91L125.45 30L101 30L114.54 0L139 0Z" fill="#000000" fill-opacity="1.000000" fill-rule="nonzero"/>
	<path id="Caminho 16" d="M154.97 0C156.41 -0.07 157.84 0.29 159.03 1.03C160.06 1.56 160.84 2.4 161.25 3.42C161.71 4.38 161.97 5.42 162 6.48C161.93 7.53 161.68 8.57 161.26 9.55C160.86 10.57 160.23 11.5 159.4 12.27C158.7 12.87 157.96 13.44 157.19 13.97C156.48 14.47 155.74 14.92 154.97 15.33L152.75 16.36C153.42 16.53 154.03 16.88 154.49 17.36C154.95 17.85 155.24 18.45 155.34 19.08C155.71 20.45 155.34 21.81 154.6 23.85L152.01 29.99L143.88 29.99C143.68 30.01 143.48 29.99 143.29 29.93C143.1 29.87 142.92 29.77 142.78 29.64C142.41 29.3 142.41 28.96 142.41 28.28L145.36 21.47C145.5 21.26 145.57 21.03 145.57 20.79C145.57 20.55 145.5 20.31 145.36 20.1C145.22 19.98 145.04 19.88 144.85 19.82C144.66 19.76 144.45 19.74 144.25 19.76L142.41 19.76L137.97 29.99L128 29.99L140.93 0L154.97 0ZM150.91 8.52C151.08 8.33 151.18 8.09 151.18 7.84C151.18 7.59 151.08 7.35 150.91 7.16C150.53 6.82 150.17 6.48 149.8 6.48L147.95 6.48L145.73 11.25L147.58 11.25C148.17 11.18 148.72 10.96 149.17 10.6C149.67 10.27 150.08 9.84 150.39 9.35L150.91 8.52Z" fill="#000000" fill-opacity="1.000000" fill-rule="nonzero"/>
</svg>
