<svg width="32.000000" height="32.000000" viewBox="0 0 32 32" fill="none" xmlns="http://www.w3.org/2000/svg" xmlns:xlink="http://www.w3.org/1999/xlink">
	<desc>
			Created with Pixso.
	</desc>
	<defs/>
	<path id="Caminho 53" d="M16 0C12.83 0 9.74 0.93 7.11 2.69C4.47 4.45 2.42 6.95 1.21 9.87C0 12.8 -0.31 16.01 0.3 19.12C0.92 22.22 2.44 25.07 4.68 27.31C6.92 29.55 9.77 31.07 12.87 31.69C15.98 32.3 19.19 31.99 22.12 30.78C25.04 29.57 27.54 27.52 29.3 24.88C31.06 22.25 32 19.16 32 16C32 11.75 30.31 7.68 27.31 4.68C24.31 1.68 20.24 0 16 0ZM24.91 23.77C24.9 23.94 24.87 24.11 24.8 24.27C24.73 24.42 24.64 24.57 24.51 24.69C24.39 24.81 24.25 24.9 24.09 24.96C23.93 25.03 23.76 25.06 23.59 25.06L8.37 25.06C8.2 25.06 8.03 25.03 7.87 24.96C7.71 24.9 7.57 24.81 7.44 24.69C7.32 24.57 7.22 24.42 7.16 24.27C7.09 24.11 7.05 23.94 7.05 23.77L7.05 8.38C7.05 8.2 7.09 8.03 7.16 7.88C7.22 7.72 7.32 7.58 7.44 7.46C7.57 7.34 7.71 7.24 7.87 7.18C8.03 7.12 8.2 7.08 8.37 7.09L23.59 7.09C23.76 7.08 23.93 7.12 24.09 7.18C24.25 7.24 24.39 7.34 24.51 7.46C24.64 7.58 24.73 7.72 24.8 7.88C24.87 8.03 24.9 8.2 24.91 8.38L24.91 23.77Z" fill="#FFFFFF" fill-opacity="1.000000" fill-rule="nonzero"/>
	<path id="Caminho 54" d="M19.08 13.82C18.59 13.8 18.11 13.92 17.68 14.16C17.25 14.39 16.9 14.74 16.65 15.16L16.65 15.19L16.63 15.19C16.64 15.18 16.65 15.17 16.65 15.16L16.65 14.01L13.95 14.01C13.99 14.77 13.95 22.13 13.95 22.13L16.65 22.13L16.65 17.6C16.64 17.37 16.67 17.15 16.74 16.94C16.84 16.65 17.03 16.4 17.28 16.23C17.52 16.05 17.82 15.95 18.12 15.95C19.1 15.95 19.49 16.69 19.49 17.78L19.49 22.12L22.19 22.12L22.19 17.47C22.19 14.98 20.86 13.82 19.08 13.82Z" fill="#FFFFFF" fill-opacity="1.000000" fill-rule="nonzero"/>
	<path id="Caminho 55" d="M11.13 10.1C10.94 10.08 10.74 10.1 10.55 10.16C10.37 10.22 10.2 10.32 10.05 10.45C9.9 10.58 9.79 10.74 9.71 10.92C9.62 11.1 9.58 11.29 9.58 11.48C9.58 11.68 9.61 11.87 9.69 12.05C9.77 12.23 9.88 12.39 10.02 12.53C10.17 12.66 10.34 12.76 10.52 12.83C10.7 12.89 10.9 12.92 11.1 12.9L11.11 12.9C11.31 12.92 11.51 12.9 11.69 12.84C11.88 12.78 12.05 12.68 12.2 12.55C12.35 12.42 12.46 12.26 12.54 12.08C12.63 11.9 12.67 11.71 12.67 11.51C12.67 11.32 12.63 11.12 12.55 10.94C12.47 10.76 12.36 10.6 12.21 10.47C12.07 10.33 11.9 10.23 11.71 10.17C11.52 10.11 11.33 10.08 11.13 10.1Z" fill="#FFFFFF" fill-opacity="1.000000" fill-rule="nonzero"/>
	<path id="Retângulo 23" d="M9.77 14.02L12.46 14.02L12.46 22.13L9.77 22.13L9.77 14.02Z" fill="#FFFFFF" fill-opacity="1.000000" fill-rule="evenodd"/>
</svg>
