<svg width="21.789917" height="24.000000" viewBox="0 0 21.7899 24" fill="none" xmlns="http://www.w3.org/2000/svg" xmlns:xlink="http://www.w3.org/1999/xlink">
	<desc>
			Created with Pixso.
	</desc>
	<defs/>
	<path id="Caminho 459" d="M21.02 14.03C20.77 13.33 20.58 12.62 20.43 11.89C20.28 10.8 20.25 9.69 20.33 8.59C20.48 8.64 20.63 8.67 20.79 8.67C20.93 8.67 21.07 8.64 21.2 8.59C21.35 8.53 21.47 8.43 21.55 8.3C21.64 8.18 21.68 8.03 21.69 7.88C21.76 6.21 21.3 4.57 20.36 3.16C19.41 1.75 18.03 0.66 16.41 0.03C16.25 -0.02 16.08 -0.01 15.94 0.06C15.79 0.13 15.68 0.25 15.62 0.4C15.57 0.55 15.57 0.71 15.64 0.85C15.71 1 15.84 1.11 15.99 1.16C16.99 1.55 17.89 2.16 18.61 2.92C17.99 5.45 18.55 6.9 19.13 7.66C18.98 9.14 19 10.62 19.19 12.09C19.34 12.87 19.55 13.63 19.81 14.38C20.44 15.89 20.66 17.54 20.44 19.15C20.31 19.62 20 20.03 19.58 20.3C19.16 20.56 18.65 20.68 18.15 20.61C17.89 20.59 17.64 20.52 17.42 20.41C17.19 20.29 16.99 20.13 16.83 19.94C16.67 19.75 16.55 19.53 16.48 19.3C16.41 19.06 16.39 18.82 16.43 18.57L16.43 11.53C16.43 11.27 16.37 11.01 16.26 10.77C16.15 10.53 15.98 10.31 15.78 10.14C15.54 9.95 15.27 9.82 14.97 9.74C14.68 9.67 14.37 9.66 14.07 9.7C13.96 9.72 13.86 9.74 13.77 9.76L13.77 0.6C13.77 0.44 13.7 0.28 13.58 0.17C13.47 0.06 13.31 0 13.14 0L1.78 0C1.61 0 1.45 0.06 1.33 0.17C1.21 0.28 1.15 0.44 1.15 0.6L1.15 22.79L0.63 22.79C0.46 22.79 0.3 22.86 0.18 22.97C0.06 23.08 0 23.24 0 23.39C0 23.55 0.06 23.71 0.18 23.82C0.3 23.93 0.46 24 0.63 24L14.29 24C14.46 24 14.62 23.93 14.74 23.82C14.86 23.71 14.92 23.55 14.92 23.39C14.92 23.24 14.86 23.08 14.74 22.97C14.62 22.86 14.46 22.79 14.29 22.79L13.77 22.79L13.77 11C13.93 10.95 14.09 10.91 14.25 10.89C14.38 10.87 14.5 10.87 14.62 10.9C14.74 10.92 14.85 10.97 14.95 11.05C15.02 11.11 15.08 11.18 15.11 11.27C15.15 11.35 15.17 11.44 15.16 11.54L15.16 18.58C15.13 18.97 15.17 19.36 15.3 19.74C15.42 20.11 15.62 20.46 15.89 20.76C16.15 21.06 16.48 21.31 16.85 21.49C17.21 21.67 17.61 21.78 18.02 21.81C18.13 21.82 18.24 21.83 18.35 21.83C19.12 21.86 19.87 21.63 20.48 21.18C21.09 20.73 21.51 20.1 21.67 19.38C21.94 17.58 21.72 15.73 21.02 14.03ZM19.64 4.35C20.11 5.25 20.38 6.24 20.42 7.26C20.32 7.17 20.24 7.08 20.17 6.99C19.66 6.2 19.47 5.26 19.64 4.35ZM2.41 22.79L2.41 1.19L12.51 1.19L12.51 22.79L2.41 22.79Z" fill="#000000" fill-opacity="1.000000" fill-rule="nonzero"/>
	<path id="Caminho 460" d="M10.62 2.37L4.31 2.37C4.14 2.37 3.98 2.43 3.86 2.55C3.74 2.66 3.67 2.81 3.67 2.97L3.67 8.97C3.67 9.13 3.74 9.28 3.86 9.4C3.98 9.51 4.14 9.57 4.31 9.57L10.62 9.57C10.78 9.57 10.94 9.51 11.06 9.4C11.18 9.28 11.25 9.13 11.25 8.97L11.25 2.97C11.25 2.81 11.18 2.66 11.06 2.55C10.94 2.43 10.78 2.37 10.62 2.37ZM9.98 8.37L4.94 8.37L4.94 3.57L9.98 3.57L9.98 8.37Z" fill="#000000" fill-opacity="1.000000" fill-rule="nonzero"/>
</svg>
