<svg width="13.148193" height="15.000000" viewBox="0 0 13.1482 15" fill="none" xmlns="http://www.w3.org/2000/svg" xmlns:xlink="http://www.w3.org/1999/xlink">
	<desc>
			Created with Pixso.
	</desc>
	<defs>
		<clipPath id="clip6_4">
			<rect id="whatsapp 1" rx="0.000000" width="12.148148" height="14.000000" transform="translate(0.500000 0.500000)" fill="white" fill-opacity="0"/>
		</clipPath>
	</defs>
	<rect id="whatsapp 1" rx="0.000000" width="12.148148" height="14.000000" transform="translate(0.500000 0.500000)" fill="#FFFFFF" fill-opacity="0"/>
	<g clip-path="url(#clip6_4)">
		<path id="Vector" d="M11.17 2.84C9.94 1.61 8.31 0.93 6.57 0.93C2.97 0.93 0.05 3.85 0.05 7.44C0.05 8.58 0.35 9.7 0.92 10.69L0 14.06L3.45 13.15C4.4 13.67 5.47 13.94 6.56 13.94L6.57 13.94C10.16 13.94 13.14 11.03 13.14 7.44C13.14 5.7 12.4 4.07 11.17 2.84ZM6.57 12.85C5.59 12.85 4.64 12.59 3.81 12.09L3.61 11.98L1.56 12.51L2.11 10.52L1.98 10.31C1.44 9.45 1.15 8.46 1.15 7.44C1.15 4.46 3.58 2.03 6.57 2.03C8.02 2.03 9.37 2.59 10.4 3.62C11.42 4.64 12.05 6 12.04 7.44C12.04 10.42 9.55 12.85 6.57 12.85ZM9.54 8.8C9.37 8.72 8.57 8.32 8.42 8.27C8.27 8.22 8.17 8.19 8.06 8.35C7.95 8.52 7.64 8.88 7.54 8.99C7.45 9.1 7.35 9.12 7.19 9.03C6.23 8.56 5.6 8.18 4.97 7.1C4.81 6.81 5.14 6.83 5.45 6.21C5.5 6.1 5.48 6.01 5.44 5.93C5.4 5.85 5.07 5.05 4.93 4.72C4.8 4.4 4.67 4.45 4.57 4.44C4.47 4.44 4.37 4.44 4.26 4.44C4.15 4.44 3.97 4.48 3.82 4.64C3.67 4.8 3.25 5.2 3.25 6C3.25 6.79 3.84 7.57 3.92 7.68C4 7.79 5.06 9.43 6.7 10.13C7.73 10.58 8.14 10.62 8.65 10.54C8.97 10.49 9.62 10.15 9.75 9.77C9.89 9.38 9.89 9.06 9.84 8.99C9.81 8.92 9.7 8.88 9.54 8.8Z" fill="#FFFFFF" fill-opacity="1.000000" fill-rule="nonzero"/>
	</g>
</svg>
