<svg width="52.747192" height="63.312988" viewBox="0 0 52.7472 63.313" fill="none" xmlns="http://www.w3.org/2000/svg" xmlns:xlink="http://www.w3.org/1999/xlink">
	<desc>
			Created with Pixso.
	</desc>
	<defs/>
	<path id="if icon play 211876" d="M50.96 27.84L5.07 0.52C4.53 0.19 3.91 0 3.28 0C2.41 0 1.57 0.35 0.96 0.97C0.35 1.59 0.01 2.43 0.01 3.3L0 3.3L0 60.01L0.01 60.01C0.01 60.88 0.35 61.71 0.96 62.33C1.57 62.95 2.41 63.3 3.28 63.31C3.93 63.28 4.56 63.09 5.12 62.75L50.96 35.46C51.52 35 51.97 34.41 52.28 33.76C52.58 33.1 52.74 32.38 52.74 31.65C52.74 30.93 52.58 30.21 52.28 29.55C51.97 28.89 51.52 28.31 50.96 27.85L50.96 27.84Z" fill="#FFFFFF" fill-opacity="1.000000" fill-rule="nonzero"/>
</svg>
