<svg width="14.438110" height="13.989746" viewBox="0 0 14.4381 13.9897" fill="none" xmlns="http://www.w3.org/2000/svg" xmlns:xlink="http://www.w3.org/1999/xlink">
	<desc>
			Created with Pixso.
	</desc>
	<defs/>
	<path id="Caminho 482" d="M0 3.63C-0.02 3.01 0.11 2.39 0.36 1.82C0.62 1.25 0.99 0.75 1.46 0.34C1.61 0.21 1.78 0.11 1.97 0.05C2.16 -0.01 2.36 -0.02 2.55 0.01C2.73 0.04 2.91 0.05 3.09 0.04C3.23 0.02 3.38 0.06 3.5 0.14C3.62 0.22 3.71 0.33 3.75 0.47C4.15 1.5 4.53 2.53 4.92 3.56C5.05 3.92 4.82 4.19 4.63 4.45C4.41 4.74 4.16 5.02 3.89 5.29C3.62 5.56 3.59 5.71 3.77 6.04C4.78 7.97 6.4 9.5 8.38 10.4C8.45 10.43 8.52 10.47 8.59 10.51C8.7 10.57 8.84 10.6 8.97 10.57C9.11 10.54 9.23 10.47 9.31 10.36C9.69 9.92 10.1 9.51 10.45 9.05C10.68 8.74 10.84 8.69 11.18 8.84C12.22 9.29 13.19 9.85 14.19 10.4C14.27 10.45 14.34 10.51 14.38 10.6C14.42 10.68 14.44 10.78 14.43 10.87C14.38 12.61 13.38 13.52 11.62 13.92C10.81 14.07 9.96 13.96 9.21 13.62C7.55 13.1 6.01 12.27 4.67 11.16C3.62 10.24 2.69 9.19 1.91 8.03C1.26 7.16 0.73 6.21 0.33 5.2C0.13 4.7 0.02 4.17 0 3.63Z" fill="#FFFFFF" fill-opacity="1.000000" fill-rule="nonzero"/>
</svg>
