<svg width="32.000000" height="32.000000" viewBox="0 0 32 32" fill="none" xmlns="http://www.w3.org/2000/svg" xmlns:xlink="http://www.w3.org/1999/xlink">
	<desc>
			Created with Pixso.
	</desc>
	<defs/>
	<path id="Caminho 56" d="M9.16 17.34L10.32 17.34L10.32 23.1L11.44 23.1L11.44 17.34L12.6 17.34L12.6 16.36L9.16 16.36L9.16 17.34Z" fill="#FFFFFF" fill-opacity="1.000000" fill-rule="nonzero"/>
	<path id="Caminho 57" d="M16.04 12.56C16.17 12.57 16.3 12.52 16.4 12.44C16.45 12.39 16.48 12.34 16.51 12.28C16.53 12.22 16.54 12.15 16.54 12.09L16.54 9.11C16.54 9.05 16.53 9 16.5 8.95C16.48 8.9 16.44 8.85 16.4 8.82C16.3 8.74 16.17 8.7 16.04 8.71C15.92 8.7 15.8 8.74 15.71 8.82C15.67 8.85 15.63 8.9 15.61 8.95C15.59 9 15.58 9.05 15.58 9.11L15.58 12.09C15.58 12.15 15.58 12.22 15.61 12.28C15.63 12.33 15.66 12.39 15.7 12.44C15.74 12.48 15.8 12.51 15.86 12.53C15.91 12.55 15.98 12.56 16.04 12.56Z" fill="#FFFFFF" fill-opacity="1.000000" fill-rule="nonzero"/>
	<path id="Caminho 58" d="M18.51 18.07C18.34 18.07 18.19 18.11 18.05 18.19C17.89 18.27 17.74 18.39 17.62 18.53L17.62 16.36L16.62 16.36L16.62 23.1L17.62 23.1L17.62 22.72C17.74 22.86 17.88 22.97 18.05 23.05C18.21 23.13 18.39 23.17 18.57 23.16C18.69 23.17 18.82 23.15 18.94 23.1C19.05 23.05 19.16 22.98 19.24 22.88C19.41 22.65 19.49 22.36 19.48 22.07L19.48 19.32C19.5 18.99 19.41 18.66 19.23 18.39C19.14 18.28 19.03 18.2 18.9 18.14C18.78 18.08 18.64 18.06 18.51 18.07ZM18.45 21.93C18.46 22.06 18.43 22.18 18.36 22.28C18.33 22.31 18.29 22.34 18.24 22.36C18.2 22.38 18.15 22.39 18.1 22.38C18.01 22.38 17.93 22.36 17.86 22.33C17.77 22.29 17.69 22.23 17.62 22.15L17.62 19.05C17.68 18.99 17.75 18.94 17.82 18.9C17.89 18.87 17.96 18.85 18.03 18.85C18.09 18.85 18.15 18.86 18.2 18.88C18.26 18.9 18.3 18.94 18.34 18.98C18.42 19.09 18.45 19.23 18.44 19.36L18.45 21.93Z" fill="#FFFFFF" fill-opacity="1.000000" fill-rule="nonzero"/>
	<path id="Caminho 59" d="M14.88 21.9C14.79 22.01 14.68 22.1 14.57 22.17C14.49 22.23 14.39 22.26 14.29 22.27C14.26 22.27 14.22 22.27 14.18 22.25C14.15 22.24 14.12 22.22 14.09 22.19C14.05 22.11 14.02 22.03 14.03 21.94L14.03 18.13L13.04 18.13L13.04 22.28C13.02 22.52 13.08 22.75 13.21 22.95C13.28 23.02 13.36 23.08 13.45 23.12C13.54 23.16 13.63 23.18 13.73 23.17C13.93 23.17 14.13 23.11 14.31 23.01C14.52 22.89 14.72 22.74 14.88 22.55L14.88 23.1L15.87 23.1L15.87 18.13L14.88 18.13L14.88 21.9L14.88 21.9Z" fill="#FFFFFF" fill-opacity="1.000000" fill-rule="nonzero"/>
	<path id="Caminho 60" d="M16 0C12.83 0 9.74 0.93 7.11 2.69C4.47 4.45 2.42 6.95 1.21 9.87C0 12.8 -0.31 16.01 0.3 19.12C0.92 22.22 2.44 25.07 4.68 27.31C6.92 29.55 9.77 31.07 12.87 31.69C15.98 32.3 19.19 31.99 22.12 30.78C25.04 29.57 27.54 27.52 29.3 24.88C31.06 22.25 32 19.16 32 16C32 11.75 30.31 7.68 27.31 4.68C24.31 1.68 20.24 0 16 0ZM18.58 7.9L19.7 7.9L19.7 12.1C19.69 12.19 19.71 12.29 19.77 12.38C19.8 12.41 19.83 12.43 19.87 12.45C19.91 12.46 19.95 12.47 20 12.47C20.11 12.45 20.22 12.41 20.31 12.35C20.44 12.27 20.55 12.17 20.65 12.05L20.65 7.9L21.77 7.9L21.77 13.37L20.65 13.37L20.65 12.77C20.47 12.98 20.25 13.15 20.01 13.28C19.81 13.39 19.59 13.45 19.36 13.45C19.25 13.46 19.14 13.44 19.04 13.4C18.94 13.36 18.85 13.29 18.78 13.21C18.63 12.99 18.56 12.73 18.58 12.47L18.58 7.9L18.58 7.9ZM14.43 9.15C14.42 8.95 14.46 8.76 14.54 8.59C14.61 8.41 14.73 8.26 14.88 8.13C15.23 7.87 15.66 7.73 16.09 7.76C16.51 7.74 16.91 7.88 17.23 8.16C17.37 8.28 17.49 8.44 17.57 8.62C17.64 8.8 17.68 8.99 17.67 9.18L17.67 12.01C17.68 12.21 17.65 12.41 17.58 12.6C17.5 12.79 17.39 12.97 17.24 13.11C16.9 13.39 16.48 13.53 16.04 13.51C15.61 13.53 15.19 13.38 14.87 13.1C14.72 12.95 14.6 12.78 14.53 12.59C14.45 12.4 14.41 12.19 14.42 11.99L14.42 9.15L14.43 9.15ZM11.38 5.95L12.2 8.91L12.28 8.91L13.06 5.95L14.34 5.95L12.87 10.29L12.87 13.37L11.61 13.37L11.61 10.43L10.11 5.95L11.38 5.95ZM26.03 21.57C26.03 22.52 25.65 23.43 24.98 24.1C24.3 24.78 23.39 25.15 22.44 25.15L9.98 25.15C9.03 25.15 8.12 24.78 7.45 24.1C6.77 23.43 6.39 22.52 6.39 21.57L6.39 18.68C6.39 18.21 6.49 17.75 6.67 17.31C6.85 16.88 7.11 16.48 7.45 16.15C7.78 15.81 8.17 15.55 8.61 15.37C9.04 15.19 9.51 15.1 9.98 15.1L22.44 15.1C22.91 15.1 23.38 15.19 23.81 15.37C24.25 15.55 24.64 15.81 24.98 16.15C25.31 16.48 25.57 16.88 25.75 17.31C25.93 17.75 26.03 18.21 26.03 18.68L26.03 21.57Z" fill="#FFFFFF" fill-opacity="1.000000" fill-rule="nonzero"/>
	<path id="Caminho 61" d="M21.51 18.01C21.31 18 21.11 18.03 20.92 18.1C20.73 18.17 20.56 18.28 20.42 18.41C20.28 18.55 20.17 18.71 20.1 18.89C20.02 19.07 19.99 19.27 20 19.46L20 21.7C19.97 22.11 20.11 22.51 20.38 22.82C20.52 22.96 20.68 23.07 20.86 23.14C21.04 23.21 21.24 23.24 21.43 23.23C21.63 23.25 21.84 23.22 22.03 23.16C22.22 23.09 22.4 22.99 22.55 22.85C22.82 22.53 22.95 22.12 22.92 21.7L22.92 21.44L21.9 21.44L21.9 21.67C21.92 21.86 21.88 22.06 21.8 22.24C21.75 22.28 21.7 22.32 21.64 22.34C21.58 22.36 21.52 22.37 21.45 22.36C21.39 22.37 21.32 22.36 21.26 22.33C21.21 22.31 21.15 22.27 21.12 22.21C21.04 22.04 21 21.86 21.02 21.67L21.02 20.73L22.92 20.73L22.92 19.46C22.94 19.07 22.81 18.68 22.55 18.38C22.41 18.25 22.25 18.15 22.07 18.09C21.89 18.02 21.7 17.99 21.51 18.01ZM21.9 19.96L21.02 19.96L21.02 19.46C21.01 19.3 21.04 19.15 21.12 19.01C21.16 18.96 21.22 18.93 21.27 18.9C21.33 18.88 21.4 18.87 21.46 18.88C21.52 18.87 21.59 18.88 21.64 18.9C21.7 18.93 21.75 18.96 21.79 19.01C21.87 19.15 21.91 19.3 21.89 19.46L21.89 19.96L21.9 19.96Z" fill="#FFFFFF" fill-opacity="1.000000" fill-rule="nonzero"/>
</svg>
