<svg width="29.319092" height="24.000000" viewBox="0 0 29.3191 24" fill="none" xmlns="http://www.w3.org/2000/svg" xmlns:xlink="http://www.w3.org/1999/xlink">
	<desc>
			Created with Pixso.
	</desc>
	<defs/>
	<path id="icon_velocidademáx" d="M23.98 23.79L22.28 22.17C22.16 22.04 22.1 21.86 22.11 21.69C22.12 21.52 22.2 21.36 22.33 21.23C22.46 21.11 22.63 21.04 22.81 21.03C23 21.03 23.18 21.08 23.32 21.19L24.49 22.31C26.49 20.19 27.67 17.48 27.82 14.63L26.17 14.63C26.07 14.64 25.97 14.62 25.88 14.59C25.79 14.55 25.71 14.5 25.63 14.44C25.56 14.37 25.51 14.29 25.47 14.21C25.43 14.12 25.41 14.03 25.41 13.94C25.41 13.84 25.43 13.75 25.47 13.66C25.51 13.58 25.56 13.5 25.63 13.43C25.71 13.37 25.79 13.32 25.88 13.28C25.97 13.25 26.07 13.24 26.17 13.24L27.83 13.24C27.66 10.4 26.49 7.7 24.49 5.58L23.31 6.69C23.25 6.76 23.17 6.81 23.08 6.85C22.99 6.88 22.89 6.9 22.79 6.9C22.7 6.9 22.6 6.88 22.51 6.85C22.42 6.81 22.34 6.76 22.27 6.7C22.2 6.63 22.15 6.56 22.11 6.47C22.07 6.38 22.06 6.29 22.06 6.2C22.06 6.11 22.08 6.02 22.11 5.93C22.15 5.85 22.21 5.77 22.28 5.71L23.45 4.59C21.22 2.69 18.37 1.56 15.38 1.4L15.38 2.98C15.38 3.16 15.3 3.34 15.17 3.47C15.03 3.6 14.84 3.67 14.65 3.67C14.45 3.67 14.27 3.6 14.13 3.47C13.99 3.34 13.91 3.16 13.91 2.98L13.91 1.4C10.92 1.56 8.08 2.68 5.85 4.59L7.03 5.7C7.15 5.83 7.21 6 7.2 6.18C7.19 6.35 7.11 6.51 6.99 6.64C6.86 6.76 6.69 6.84 6.51 6.85C6.32 6.86 6.14 6.81 6 6.7L4.83 5.58C2.83 7.7 1.65 10.4 1.48 13.24L3.14 13.24C3.23 13.24 3.33 13.25 3.42 13.28C3.52 13.32 3.6 13.37 3.67 13.43C3.74 13.5 3.8 13.58 3.84 13.66C3.87 13.75 3.89 13.84 3.89 13.93C3.89 14.03 3.87 14.12 3.84 14.21C3.8 14.29 3.74 14.37 3.67 14.44C3.6 14.5 3.52 14.55 3.42 14.59C3.33 14.62 3.23 14.63 3.14 14.63L1.48 14.63C1.64 17.48 2.82 20.19 4.82 22.31L5.99 21.19C6.13 21.08 6.31 21.02 6.49 21.02C6.68 21.03 6.85 21.1 6.98 21.23C7.12 21.35 7.19 21.51 7.2 21.69C7.21 21.86 7.15 22.04 7.03 22.17L5.3 23.77C5.23 23.83 5.15 23.88 5.06 23.92C4.98 23.95 4.88 23.97 4.78 23.97C4.69 23.97 4.59 23.95 4.5 23.92C4.41 23.88 4.33 23.83 4.26 23.77C1.54 21.16 0 17.64 0 13.96C-0.01 10.29 1.51 6.76 4.23 4.14C4.27 4.1 4.31 4.05 4.36 4.02C7.1 1.44 10.8 0 14.65 0C18.51 0 22.21 1.44 24.95 4.02C25 4.05 25.04 4.1 25.08 4.14C27.8 6.76 29.32 10.3 29.31 13.98C29.3 17.66 27.76 21.19 25.02 23.79C24.95 23.86 24.87 23.91 24.78 23.94C24.69 23.98 24.6 24 24.5 24C24.41 24 24.31 23.98 24.22 23.94C24.13 23.91 24.05 23.86 23.98 23.79L23.98 23.79ZM12.38 16.02C11.89 15.54 11.59 14.92 11.51 14.26C11.44 13.59 11.59 12.93 11.96 12.36L8.48 9.05C8.34 8.92 8.27 8.74 8.27 8.56C8.27 8.38 8.35 8.2 8.49 8.07C8.62 7.94 8.81 7.87 9 7.87C9.19 7.86 9.38 7.94 9.52 8.06L13 11.37C13.51 11.08 14.09 10.92 14.69 10.93C15.29 10.93 15.87 11.1 16.37 11.41C16.87 11.71 17.27 12.15 17.52 12.66C17.78 13.18 17.87 13.75 17.79 14.31C17.72 14.88 17.48 15.41 17.1 15.84C16.72 16.28 16.22 16.61 15.65 16.79C15.08 16.97 14.48 16.99 13.9 16.85C13.32 16.72 12.79 16.43 12.38 16.02ZM13.46 12.79C13.22 13.01 13.05 13.3 12.99 13.62C12.92 13.93 12.95 14.26 13.08 14.55C13.21 14.85 13.43 15.1 13.71 15.28C13.99 15.46 14.32 15.55 14.65 15.55C14.93 15.55 15.21 15.49 15.46 15.36C15.7 15.24 15.91 15.06 16.07 14.83C16.22 14.61 16.32 14.36 16.35 14.1C16.37 13.83 16.33 13.57 16.22 13.32C16.12 13.07 15.95 12.86 15.73 12.69C15.52 12.52 15.26 12.4 14.99 12.35C14.72 12.3 14.43 12.31 14.17 12.39C13.9 12.47 13.65 12.6 13.46 12.79L13.46 12.79Z" fill="#000000" fill-opacity="1.000000" fill-rule="nonzero"/>
</svg>
