<svg width="38.012939" height="24.000000" viewBox="0 0 38.0129 24" fill="none" xmlns="http://www.w3.org/2000/svg" xmlns:xlink="http://www.w3.org/1999/xlink">
	<desc>
			Created with Pixso.
	</desc>
	<defs/>
	<path id="icon_cilindrada" d="M36.53 7.99C36.45 7.84 36.33 7.71 36.18 7.62C36.03 7.53 35.85 7.49 35.67 7.49L32.27 7.49C32.02 7.49 31.78 7.58 31.6 7.75C31.42 7.92 31.32 8.15 31.32 8.39L31.32 10.3L29.98 10.3L29.98 8.38C29.98 8.14 29.88 7.91 29.7 7.74C29.52 7.58 29.28 7.48 29.03 7.48L26.94 7.47L25.64 4.65C25.56 4.49 25.44 4.36 25.29 4.26C25.13 4.17 24.95 4.12 24.77 4.12L19.67 4.12L19.67 1.8L22.35 1.8C22.47 1.8 22.6 1.78 22.71 1.73C22.83 1.69 22.93 1.62 23.02 1.54C23.11 1.45 23.18 1.35 23.22 1.24C23.27 1.13 23.3 1.02 23.3 0.9C23.3 0.78 23.27 0.66 23.22 0.55C23.18 0.44 23.11 0.34 23.02 0.26C22.93 0.18 22.83 0.11 22.71 0.06C22.6 0.02 22.47 0 22.35 0L11.07 0C10.95 0 10.82 0.02 10.71 0.06C10.59 0.11 10.49 0.18 10.4 0.26C10.31 0.34 10.24 0.44 10.19 0.55C10.14 0.66 10.12 0.78 10.12 0.9C10.12 1.02 10.14 1.13 10.19 1.24C10.24 1.35 10.31 1.45 10.4 1.54C10.49 1.62 10.59 1.69 10.71 1.73C10.82 1.78 10.95 1.8 11.07 1.8L14.35 1.8L14.35 4.12L9.88 4.12C9.71 4.12 9.54 4.16 9.4 4.24C9.25 4.32 9.13 4.44 9.05 4.57L8.1 6.18L7.44 6.18C6.62 6.19 5.82 6.5 5.24 7.06C4.65 7.61 4.32 8.37 4.32 9.15L4.32 11.12L2.13 11.12C2.05 11.12 1.97 11.13 1.9 11.15L1.9 6.3C1.9 6.06 1.8 5.83 1.62 5.66C1.44 5.49 1.2 5.4 0.95 5.4C0.69 5.4 0.45 5.49 0.27 5.66C0.1 5.83 0 6.06 0 6.3L0 17.43C0 17.67 0.1 17.9 0.27 18.07C0.45 18.24 0.69 18.33 0.95 18.33C1.2 18.33 1.44 18.24 1.62 18.07C1.8 17.9 1.9 17.67 1.9 17.43L1.9 12.9C1.97 12.92 2.05 12.93 2.13 12.93L4.32 12.93L4.32 17.31C4.32 18.11 4.66 18.87 5.25 19.44C5.84 20 6.65 20.32 7.48 20.32L10.53 20.32L14.12 23.73C14.21 23.81 14.31 23.88 14.43 23.93C14.54 23.97 14.67 24 14.79 24L29.03 24C29.28 24 29.52 23.9 29.7 23.73C29.88 23.56 29.98 23.33 29.98 23.09L29.98 20.49L31.33 20.49L31.33 22.19C31.33 22.31 31.35 22.43 31.4 22.54C31.45 22.65 31.52 22.75 31.6 22.83C31.69 22.91 31.8 22.98 31.91 23.03C32.03 23.07 32.15 23.09 32.28 23.09L35.74 23.1C35.92 23.1 36.1 23.05 36.25 22.96C36.4 22.88 36.52 22.75 36.6 22.6C37.61 20.25 38.09 17.71 38 15.17C38.04 12.71 37.54 10.26 36.53 7.99ZM16.25 1.81L17.76 1.81L17.76 4.12L16.25 4.12L16.25 1.81ZM35.11 21.29L33.23 21.29L33.23 19.58C33.23 19.46 33.2 19.34 33.15 19.23C33.11 19.12 33.04 19.02 32.95 18.94C32.86 18.86 32.75 18.79 32.64 18.74C32.52 18.7 32.4 18.67 32.27 18.67L29.02 18.68C28.9 18.68 28.77 18.7 28.66 18.75C28.54 18.79 28.44 18.86 28.35 18.95C28.26 19.03 28.19 19.13 28.15 19.24C28.1 19.35 28.07 19.47 28.07 19.58L28.07 22.18L15.18 22.18L11.6 18.77C11.51 18.69 11.41 18.62 11.29 18.58C11.17 18.53 11.05 18.51 10.93 18.51L7.48 18.51C7.15 18.51 6.83 18.38 6.59 18.16C6.36 17.93 6.22 17.63 6.22 17.31L6.22 9.15C6.22 8.85 6.35 8.55 6.58 8.33C6.81 8.11 7.12 7.99 7.44 7.99L8.65 7.99C8.82 7.99 8.98 7.95 9.13 7.87C9.27 7.79 9.39 7.67 9.48 7.53L10.43 5.92L24.14 5.92L25.44 8.73C25.52 8.89 25.64 9.03 25.79 9.12C25.95 9.22 26.12 9.27 26.31 9.27L28.07 9.28L28.07 11.2C28.07 11.44 28.17 11.67 28.35 11.84C28.53 12.01 28.77 12.11 29.02 12.11L32.27 12.11C32.53 12.11 32.77 12.01 32.95 11.84C33.12 11.67 33.23 11.44 33.23 11.2L33.23 9.29L35.04 9.29C35.75 11.17 36.11 13.17 36.09 15.17C36.13 17.25 35.8 19.32 35.11 21.29Z" fill="#000000" fill-opacity="1.000000" fill-rule="nonzero"/>
</svg>
