<svg width="17.051636" height="24.000000" viewBox="0 0 17.0516 24" fill="none" xmlns="http://www.w3.org/2000/svg" xmlns:xlink="http://www.w3.org/1999/xlink">
	<desc>
			Created with Pixso.
	</desc>
	<defs/>
	<path id="icon_potência" d="M4.69 23.99C4.56 23.99 4.43 23.97 4.31 23.91C4.2 23.85 4.09 23.77 4.02 23.67C3.94 23.57 3.88 23.46 3.86 23.33C3.84 23.21 3.85 23.09 3.88 22.97L7.08 12.64L0.86 12.79C0.72 12.79 0.58 12.76 0.46 12.7C0.33 12.64 0.23 12.55 0.15 12.44C0.07 12.33 0.02 12.2 0 12.07C-0.02 11.94 0 11.81 0.06 11.68L4.82 0.5C4.89 0.35 4.99 0.22 5.13 0.13C5.27 0.04 5.44 -0.01 5.6 0L12.41 0C12.55 -0.01 12.7 0.03 12.83 0.1C12.96 0.17 13.06 0.27 13.14 0.4C13.21 0.52 13.25 0.66 13.25 0.8C13.25 0.94 13.21 1.08 13.13 1.2L9.61 6.97L16.21 6.9C16.36 6.91 16.51 6.95 16.64 7.02C16.77 7.09 16.88 7.19 16.95 7.32C17.02 7.45 17.05 7.59 17.04 7.74C17.03 7.89 16.98 8.03 16.89 8.15L5.38 23.65C5.3 23.76 5.2 23.85 5.08 23.9C4.96 23.96 4.83 23.99 4.69 24L4.69 23.99ZM8.22 11.04C8.35 11.04 8.48 11.06 8.6 11.12C8.72 11.18 8.82 11.26 8.9 11.36C8.98 11.46 9.03 11.57 9.05 11.7C9.07 11.82 9.07 11.94 9.03 12.06L6.94 18.79L14.6 8.52L8.16 8.58C8.02 8.58 7.87 8.54 7.74 8.47C7.61 8.4 7.51 8.3 7.43 8.18C7.36 8.06 7.32 7.92 7.32 7.78C7.32 7.64 7.36 7.5 7.44 7.38L10.96 1.61L6.18 1.61L2.1 11.17L8.2 11.04L8.22 11.04Z" fill="#000000" fill-opacity="1.000000" fill-rule="nonzero"/>
</svg>
