<svg width="32.000000" height="32.000000" viewBox="0 0 32 32" fill="none" xmlns="http://www.w3.org/2000/svg" xmlns:xlink="http://www.w3.org/1999/xlink">
	<desc>
			Created with Pixso.
	</desc>
	<defs/>
	<path id="Elipse 14" d="M18.73 16.13C18.73 17.71 17.45 18.99 15.86 18.99C14.28 18.99 13 17.71 13 16.13C13 14.54 14.28 13.26 15.86 13.26C17.45 13.26 18.73 14.54 18.73 16.13Z" fill="#FFFFFF" fill-opacity="1.000000" fill-rule="evenodd"/>
	<path id="Caminho 51" d="M19.44 9.1L12.29 9.1C11.36 9.06 10.44 9.39 9.75 10.01C9.13 10.71 8.8 11.62 8.84 12.55L8.84 19.7C8.82 20.18 8.9 20.65 9.07 21.1C9.23 21.55 9.49 21.95 9.82 22.3C10.52 22.92 11.42 23.24 12.35 23.21L19.44 23.21C20.37 23.25 21.29 22.93 21.98 22.3C22.31 21.97 22.57 21.57 22.74 21.14C22.9 20.7 22.98 20.23 22.95 19.76L22.95 12.61C22.98 11.68 22.66 10.78 22.04 10.08C21.7 9.74 21.29 9.49 20.84 9.32C20.4 9.15 19.92 9.08 19.44 9.1ZM15.87 20.55C14.69 20.55 13.57 20.08 12.74 19.25C11.91 18.42 11.44 17.3 11.44 16.12C11.44 14.95 11.91 13.83 12.74 13C13.57 12.17 14.69 11.7 15.87 11.7C17.04 11.7 18.16 12.17 18.99 13C19.82 13.83 20.29 14.95 20.29 16.12C20.29 17.3 19.82 18.42 18.99 19.25C18.16 20.08 17.04 20.55 15.87 20.55ZM20.48 12.55C20.28 12.55 20.08 12.49 19.9 12.37C19.73 12.26 19.6 12.1 19.52 11.91C19.44 11.72 19.42 11.51 19.46 11.3C19.5 11.1 19.6 10.92 19.75 10.77C19.89 10.63 20.08 10.53 20.28 10.49C20.48 10.45 20.69 10.47 20.88 10.55C21.07 10.62 21.23 10.76 21.35 10.93C21.46 11.1 21.52 11.3 21.52 11.51C21.53 11.64 21.5 11.78 21.45 11.91C21.4 12.03 21.32 12.15 21.22 12.25C21.13 12.34 21.01 12.42 20.88 12.47C20.76 12.52 20.62 12.55 20.48 12.55Z" fill="#FFFFFF" fill-opacity="1.000000" fill-rule="nonzero"/>
	<path id="Caminho 52" d="M16 0C12.83 0 9.74 0.93 7.11 2.69C4.47 4.45 2.42 6.95 1.21 9.87C0 12.8 -0.31 16.01 0.3 19.12C0.92 22.22 2.44 25.07 4.68 27.31C6.92 29.55 9.77 31.07 12.87 31.69C15.98 32.3 19.19 31.99 22.12 30.78C25.04 29.57 27.54 27.52 29.3 24.88C31.06 22.25 32 19.16 32 16C32 13.89 31.58 11.81 30.78 9.87C29.98 7.93 28.8 6.16 27.31 4.68C25.83 3.19 24.06 2.01 22.12 1.21C20.18 0.41 18.1 -0.01 16 0ZM24.52 19.77C24.53 20.45 24.42 21.13 24.17 21.76C23.93 22.4 23.56 22.98 23.08 23.47C22.6 23.93 22.02 24.29 21.4 24.52C20.77 24.76 20.11 24.86 19.44 24.84L12.35 24.84C11.69 24.86 11.02 24.76 10.4 24.52C9.77 24.29 9.2 23.93 8.71 23.47C8.23 22.99 7.85 22.41 7.6 21.77C7.36 21.13 7.25 20.45 7.28 19.77L7.28 12.61C7.24 11.94 7.35 11.26 7.59 10.63C7.83 10 8.2 9.42 8.68 8.94C9.16 8.46 9.74 8.09 10.37 7.85C11 7.61 11.68 7.5 12.35 7.54L19.51 7.54C20.18 7.51 20.85 7.62 21.47 7.87C22.1 8.11 22.67 8.48 23.14 8.96C23.61 9.44 23.98 10.01 24.21 10.64C24.45 11.27 24.55 11.94 24.52 12.61L24.52 19.77Z" fill="#FFFFFF" fill-opacity="1.000000" fill-rule="nonzero"/>
</svg>
